<?xml version="1.0" encoding="UTF-8"?>
<svg xmlns="http://www.w3.org/2000/svg" xmlns:xlink="http://www.w3.org/1999/xlink" width="20pt" height="20pt" viewBox="0 0 20 20" version="1.1">
<g id="surface1">
<path style=" stroke:none;fill-rule:nonzero;fill:rgb(0%,0%,0%);fill-opacity:1;" d="M 19.992188 10.121094 C 19.957031 10.421875 19.933594 10.726562 19.882812 11.027344 C 19.453125 13.628906 18.148438 15.730469 15.96875 17.328125 C 15.933594 17.355469 15.851562 17.371094 15.816406 17.351562 C 15.027344 16.917969 14.238281 16.480469 13.453125 16.042969 C 13.441406 16.035156 13.429688 16.027344 13.40625 16.007812 C 13.449219 15.984375 13.488281 15.960938 13.527344 15.941406 C 15.8125 14.691406 17.140625 12.8125 17.421875 10.296875 C 17.832031 6.636719 15.171875 3.230469 11.414062 2.542969 C 7.238281 1.78125 3.300781 4.433594 2.601562 8.472656 C 1.949219 12.261719 4.625 15.949219 8.550781 16.664062 C 8.882812 16.722656 9.222656 16.746094 9.558594 16.792969 C 9.625 16.800781 9.683594 16.84375 9.742188 16.878906 C 9.914062 16.976562 10.082031 17.082031 10.253906 17.179688 C 10.886719 17.53125 11.519531 17.886719 12.15625 18.238281 C 12.414062 18.378906 12.671875 18.523438 12.929688 18.664062 C 12.976562 18.691406 13.019531 18.722656 13.082031 18.761719 C 13.019531 18.78125 12.972656 18.800781 12.925781 18.8125 C 7.140625 20.523438 1.125 16.925781 0.140625 11.167969 C 0.0898438 10.867188 0.0664062 10.566406 0.03125 10.261719 C 0.0234375 10.214844 0.015625 10.167969 0.0078125 10.121094 L 0.0078125 9.113281 C 0.015625 9.074219 0.0234375 9.03125 0.0273438 8.988281 C 0.0703125 8.335938 0.183594 7.6875 0.367188 7.058594 C 1.410156 3.386719 4.65625 0.636719 8.5625 0.101562 C 8.867188 0.0585938 9.171875 0.0351562 9.476562 0 L 10.523438 0 C 10.558594 0.0078125 10.59375 0.015625 10.628906 0.0195312 C 11.316406 0.0585938 11.996094 0.167969 12.660156 0.347656 C 16.476562 1.351562 19.332031 4.46875 19.886719 8.238281 C 19.933594 8.527344 19.960938 8.824219 19.992188 9.113281 Z M 19.992188 10.121094 "/>
<path style=" stroke:none;fill-rule:nonzero;fill:rgb(0%,0%,0%);fill-opacity:1;" d="M 10.035156 4.664062 C 12.890625 4.664062 15.207031 6.898438 15.203125 9.652344 C 15.199219 12.40625 12.878906 14.628906 10.019531 14.625 C 7.160156 14.625 4.851562 12.390625 4.851562 9.636719 C 4.855469 6.882812 7.175781 4.660156 10.035156 4.664062 Z M 10.03125 5.429688 C 9.695312 5.425781 9.394531 5.617188 9.265625 5.914062 C 9.136719 6.210938 9.207031 6.554688 9.441406 6.78125 C 9.679688 7.011719 10.035156 7.078125 10.34375 6.957031 C 10.652344 6.832031 10.851562 6.542969 10.851562 6.21875 C 10.851562 5.785156 10.484375 5.429688 10.03125 5.429688 Z M 14.410156 9.648438 C 14.410156 9.324219 14.210938 9.035156 13.902344 8.914062 C 13.59375 8.789062 13.238281 8.855469 13 9.085938 C 12.765625 9.3125 12.695312 9.65625 12.824219 9.953125 C 12.953125 10.246094 13.257812 10.441406 13.589844 10.4375 C 14.042969 10.4375 14.410156 10.082031 14.410156 9.648438 Z M 10.035156 13.839844 C 10.253906 13.839844 10.460938 13.757812 10.617188 13.609375 C 10.769531 13.460938 10.855469 13.257812 10.851562 13.046875 C 10.851562 12.726562 10.652344 12.433594 10.34375 12.3125 C 10.035156 12.1875 9.679688 12.257812 9.441406 12.484375 C 9.207031 12.714844 9.136719 13.058594 9.265625 13.351562 C 9.398438 13.648438 9.699219 13.84375 10.035156 13.839844 Z M 5.667969 9.644531 C 5.664062 9.855469 5.75 10.058594 5.902344 10.207031 C 6.058594 10.355469 6.265625 10.441406 6.484375 10.4375 C 6.820312 10.441406 7.125 10.25 7.253906 9.953125 C 7.386719 9.660156 7.316406 9.316406 7.082031 9.085938 C 6.847656 8.859375 6.492188 8.789062 6.183594 8.910156 C 5.871094 9.03125 5.671875 9.324219 5.671875 9.644531 Z M 5.667969 9.644531 "/>
<path style=" stroke:none;fill-rule:nonzero;fill:rgb(0%,0%,0%);fill-opacity:1;" d="M 16.917969 18.28125 L 15.886719 20 L 9.953125 16.699219 C 10.296875 16.125 10.636719 15.5625 10.984375 14.980469 Z M 16.917969 18.28125 "/>
</g>
</svg>
