<svg xmlns="http://www.w3.org/2000/svg" viewBox="0 0 512.05 532.37"><defs><style>.cls-1{fill:#fff;}</style></defs><title>Quba Engine Logo</title><g id="Layer_2" data-name="Layer 2"><g id="Layer_1-2" data-name="Layer 1"><path class="cls-1" d="M512.05,269.43c-.92,8-1.54,16.09-2.8,24.06q-16.51,104-100.3,167.78c-.94.73-3,1.15-3.89.63-20.26-11.54-40.43-23.24-60.62-34.91-.3-.18-.57-.41-1.15-.84,1.12-.66,2.08-1.25,3.07-1.81,58.61-33.26,92.55-83.29,99.78-150.28,10.52-97.35-57.63-188.12-153.85-206.34C185.27,47.45,84.4,118,66.54,225.57c-16.75,100.84,51.77,198.93,152.38,218,8.52,1.61,17.24,2.14,25.84,3.39,1.62.24,3.15,1.4,4.63,2.29,4.4,2.65,8.71,5.47,13.15,8q24.32,14.14,48.71,28.19c6.6,3.81,13.21,7.59,19.8,11.41,1.19.69,2.32,1.5,3.94,2.55-1.63.58-2.78,1-4,1.4C182.8,546.27,28.66,450.55,3.42,297.32c-1.31-8-1.88-16.09-2.82-24.14-.15-1.26-.4-2.5-.6-3.75v-26.8a30.53,30.53,0,0,0,.57-3.4,252.25,252.25,0,0,1,8.65-51.32C36,90.2,119.08,16.92,219.23,2.71,227,1.61,234.83.89,242.63,0h26.8a21.6,21.6,0,0,0,2.73.54,251.13,251.13,0,0,1,52,8.69C421.9,36,495.05,119,509.35,219.27c1.11,7.76,1.81,15.57,2.7,23.36Z"/><path class="cls-1" d="M256.94,124.15c73.17,0,132.44,59.51,132.38,132.79S329.81,389.38,256.53,389.32,124.09,329.81,124.15,256.53,183.65,124.09,256.94,124.15Zm-.12,20.34a21.13,21.13,0,1,0,21,21.07A21.12,21.12,0,0,0,256.82,144.49ZM369,256.8a21.12,21.12,0,1,0-21,21.06A21.12,21.12,0,0,0,369,256.8ZM256.91,368.38a20.76,20.76,0,0,0,20.95-21.07,21.13,21.13,0,1,0-20.95,21.07ZM145.08,256.73A20.78,20.78,0,0,0,166,277.86a21.13,21.13,0,1,0-20.89-21.13Z"/><path class="cls-1" d="M433.28,486.59l-26.42,45.78-152-87.82c8.82-15.3,17.48-30.32,26.41-45.79Z"/></g></g></svg>